<?xml version="1.0" encoding="utf-8"?>
<!-- Generator: Adobe Illustrator 24.1.3, SVG Export Plug-In . SVG Version: 6.00 Build 0)  -->
<svg version="1.1" id="Layer_1" xmlns="http://www.w3.org/2000/svg" xmlns:xlink="http://www.w3.org/1999/xlink" x="0px" y="0px"
	 viewBox="0 0 370 80" style="enable-background:new 0 0 370 80;" xml:space="preserve">
<style type="text/css">
	.st0{fill:#505158;}
	.st1{fill:#61B677;}
</style>
<g>
	<g>
		<path class="st0" d="M151.9,56.4h-5.7l-9.4-19.5l-3.5,19.5h-5.7l5-28.4h5.7l9.4,19.5l3.5-19.5h5.7L151.9,56.4z"/>
		<path class="st0" d="M182.7,33.9l-4,22.5H173l0.5-2.8c-0.9,1-1.9,1.7-3.2,2.3c-1.3,0.6-2.6,0.8-4,0.8c-2.3,0-4.2-0.6-5.5-1.9
			c-1.4-1.3-2-3.1-2-5.4c0-0.9,0.1-1.6,0.2-2.3l2.3-13.2h5.7l-2.2,12.4c-0.1,0.5-0.1,1-0.1,1.4c0,1.3,0.4,2.4,1.1,3.1
			c0.7,0.7,1.8,1.1,3.1,1.1c1.5,0,2.9-0.5,3.9-1.4c1.1-1,1.8-2.3,2.1-4.1l2.2-12.4H182.7z"/>
		<path class="st0" d="M192.2,49.5c0,0.2,0,0.4,0,0.7c0,0.5,0.2,0.9,0.5,1.2c0.3,0.2,0.8,0.3,1.6,0.3h2.7l-0.9,4.8h-3.6
			c-4.1,0-6.1-1.7-6.1-5.1c0-0.7,0.1-1.3,0.2-1.9l1.9-10.9h-2.7l0.8-4.7h2.7l1-5.6h5.7l-1,5.6h5l-0.8,4.7h-5L192.2,49.5z"/>
		<path class="st0" d="M212.5,34.7c1.3-0.8,2.7-1.1,4.2-1.1l-1.1,6h-1.5c-1.7,0-3,0.4-4,1.1c-1,0.7-1.8,2-2.2,3.7l-2.1,12h-5.7
			l4-22.5h5.7l-0.7,4C210.1,36.5,211.2,35.5,212.5,34.7z"/>
		<path class="st0" d="M226.3,33.9l-4,22.5h-5.7l4-22.5H226.3z M221.7,30.4c-0.5-0.5-0.8-1.2-0.8-2c0-1.1,0.4-2,1.2-2.8
			c0.8-0.8,1.8-1.2,2.9-1.2c0.9,0,1.6,0.3,2.1,0.8c0.5,0.5,0.8,1.2,0.8,2c0,1.1-0.4,2-1.2,2.8c-0.8,0.8-1.8,1.2-2.9,1.2
			C223,31.2,222.3,30.9,221.7,30.4z"/>
		<path class="st0" d="M249.6,29.4c1.9,0.9,3.4,2.2,4.4,3.9c1,1.7,1.5,3.7,1.5,6c0,1-0.1,2-0.3,3c-0.5,2.8-1.5,5.3-3.2,7.5
			c-1.6,2.1-3.7,3.8-6.1,4.9c-2.5,1.2-5.2,1.7-8.2,1.7h-9.9l5-28.4h9.9C245.4,28,247.7,28.5,249.6,29.4z M245.8,49.3
			c1.9-1.7,3.1-4,3.7-7c0.1-0.9,0.2-1.7,0.2-2.3c0-2.3-0.7-4-2-5.3c-1.3-1.2-3.3-1.9-5.9-1.9h-4l-3.3,19h4
			C241.4,51.8,243.8,50.9,245.8,49.3z"/>
		<path class="st0" d="M277.8,35.9c1.7,1.6,2.5,3.7,2.5,6.4c0,0.9-0.1,1.6-0.2,2.3c-0.2,0.8-0.3,1.5-0.5,2.1h-16.5
			c0,0.2,0,0.5,0,0.8c0,1.4,0.4,2.5,1.2,3.3c0.8,0.8,1.9,1.2,3.3,1.2c1.1,0,2.1-0.3,2.9-0.8c0.8-0.5,1.5-1.2,2-2h6.1
			c-1,2.2-2.6,4-4.7,5.3c-2.1,1.4-4.5,2.1-7.1,2.1c-2.9,0-5.2-0.8-6.9-2.4c-1.7-1.6-2.6-3.8-2.6-6.6c0-0.8,0.1-1.7,0.2-2.6
			c0.4-2.3,1.2-4.4,2.5-6.1c1.3-1.8,2.8-3.1,4.7-4.1c1.9-0.9,3.9-1.4,6.1-1.4C273.8,33.5,276.1,34.3,277.8,35.9z M274.5,42.3
			c0-1.3-0.4-2.3-1.3-3.1c-0.8-0.7-1.9-1.1-3.3-1.1c-1.4,0-2.7,0.5-3.9,1.4c-1.1,0.9-1.9,2.1-2.4,3.7h10.7
			C274.5,42.8,274.5,42.5,274.5,42.3z"/>
		<path class="st0" d="M319.8,35.5c1.4,1.3,2.1,3.1,2.1,5.4c0,0.9-0.1,1.6-0.2,2.3l-2.4,13.2h-5.7l2.2-12.4c0.1-0.5,0.1-1,0.1-1.4
			c0-1.3-0.4-2.3-1.1-3c-0.7-0.7-1.7-1-3.1-1c-1.6,0-2.9,0.5-4,1.4c-1.1,0.9-1.8,2.3-2,4v0l-2.2,12.5h-5.7l2.2-12.4
			c0.1-0.5,0.1-0.9,0.1-1.4c0-1.3-0.4-2.3-1.1-3c-0.7-0.7-1.8-1-3.1-1c-1.5,0-2.8,0.4-3.8,1.3c-1.1,0.9-1.8,2.1-2.1,3.8l-2.3,12.8
			h-5.7l4-22.5h5.7l-0.5,2.7c0.9-0.9,2-1.7,3.2-2.2c1.2-0.5,2.6-0.8,3.9-0.8c1.8,0,3.3,0.4,4.5,1.1c1.2,0.7,2.1,1.8,2.6,3.2
			c0.9-1.3,2.2-2.3,3.7-3.1c1.5-0.8,3.1-1.2,4.8-1.2C316.5,33.6,318.4,34.2,319.8,35.5z"/>
		<path class="st0" d="M329.7,55.6c-1.5-0.8-2.6-1.9-3.4-3.3c-0.8-1.4-1.2-3.1-1.2-5c0-2.5,0.6-4.9,1.8-7c1.2-2.1,2.9-3.8,5-5
			c2.1-1.2,4.4-1.8,7-1.8c1.9,0,3.6,0.4,5.1,1.2c1.5,0.8,2.7,1.9,3.5,3.4c0.8,1.4,1.2,3.1,1.2,5c0,2.6-0.6,4.9-1.8,7
			c-1.2,2.1-2.9,3.7-5,4.9c-2.1,1.2-4.5,1.8-7.1,1.8C332.9,56.8,331.2,56.4,329.7,55.6z M339.3,50.7c1.1-0.8,2-1.8,2.6-3.1
			c0.6-1.3,0.9-2.7,0.9-4.1c0-1.6-0.5-2.9-1.4-3.8c-0.9-0.9-2.1-1.3-3.4-1.3s-2.6,0.4-3.7,1.2c-1.1,0.8-1.9,1.8-2.5,3.2
			c-0.6,1.3-0.9,2.7-0.9,4.2c0,1.6,0.4,2.8,1.3,3.7c0.9,0.9,2,1.3,3.4,1.3C337,51.9,338.2,51.5,339.3,50.7z"/>
	</g>
	<g>
		<path class="st1" d="M118.1,31.7c-2-6.6-7.1-9.8-13.6-10.6c-2.6-0.3-5.2-0.4-7.9-0.4v0l-18.2-0.2l0,0c-0.5,0-1,0-1.5,0
			c-0.3,0-0.9,0.5-1,0.9c-0.5,1.5-0.8,3-1.2,4.5c-1.1,4.4-2.3,8.9-3.5,13.5c-0.1,0.3-0.4,0.3-0.5,0.1c-0.1-0.2-0.1-0.3-0.2-0.4
			c-2.5-5.8-5-11.6-7.5-17.4c-0.3-0.7-0.6-1.2-1.5-1.2c-9.2,0-18.4,0-27.6,0c-1.5,0-2.1,0.6-2.1,2c0,1.5,1,1.4,2,1.4
			c4.6,0,9.2,0,13.7,0c0.4,0,0.9,0,1.3,0c0.2,0,0.4,0.2,0.3,0.4c-0.2,0.9-0.4,1.7-0.5,2.3c-0.3,1.3-0.8,1.6-2,1.6
			c-6.3-0.1-12.7-0.1-19-0.1c-0.5,0-1,0-1.5,0.1c-1.2,0.2-1.3,0.8-1.4,1.7c0,1,0.7,1.7,1.6,1.7c0.7,0,1.5,0,2.2,0
			c5.8,0,12.5-0.1,18.3,0c0.4,0,0.3,0.5,0.2,0.8c-0.7,3.1-0.8,3.8-3.9,3.8C36.6,36,29.8,36,23,36c-1.8,0-1.7,0.7-1.7,1.7
			c-0.1,1.8-0.1,1.9,1.9,1.9c5.6,0,18.9,0.2,21.6,0.2c0.2,0,0.4,0.2,0.4,0.5c-0.1,0.6-0.3,1.1-0.4,1.6c-0.6,3-0.3,2.2-4.4,2.2
			c-4.7,0-4.7,0-12.1,0c-2.5,0-3.4,0.3-3.4,1.9c0.1,1.5,1.3,1.3,2.3,1.3c4.4,0,8.8,0,13.2,0c4.1,0,3.2-0.2,2.6,3.2
			c-0.2,1.2-0.8,1.5-2,1.5c-3.5-0.1-6.9,0-10.4,0c-1.4,0-1.9,0.6-1.9,2c0,1.4,0.9,1.4,1.9,1.4c1.4,0,2.8,0,4.2,0c2.1,0,4.2,0,6.6,0
			c-0.3,1.6-0.6,2.8-0.9,4.2c1.8,0,8.1,0,9.7-0.1c1.7-6.5,4.4-17.3,6.2-24.3c0-0.1,0.2-0.2,0.3,0c0.2,0.4,0.4,0.7,0.5,0.9
			c2.9,7.4,5.9,14.7,8.7,22.1c0.4,1.1,0.9,1.5,2.3,1.3c1.9-0.2,3.7-0.1,5.6,0c1.2,0.1,2.3-0.7,2.6-1.9c2.2-9.3,4.5-18.6,6.8-28
			c0.1-0.4,0.5-0.7,0.9-0.7l2.5,0c0,0,0,0,0,0h0h9.7c0,0,0,0,0,0l0.4,0h0.3l0,0c1.7,0.1,3.4,0.1,5.1,0.5c5.8,1.4,8.1,5.2,6.5,11
			c-1.7,6.2-6.9,10.4-13.4,10.6c-1.1,0-2.2,0-3.5,0c-0.7,0-1.3-0.7-1.1-1.4c0.5-2.3,1.1-4.5,1.6-6.7c0.7-2.7,1.3-5.4,2-8.2
			c0.2-0.7-0.4-1.4-1.1-1.4h-6.6c-0.5,0-1,0.4-1.1,0.9c-0.9,3.7-1.8,7.4-2.7,11c-1,4.1-2.1,8.3-3.1,12.4c-0.2,0.7,0.4,1.4,1.1,1.4
			c5.6,0.1,11.1,0.4,16.5-0.1c9.4-0.9,16-6.2,19.8-14.8C118.6,40.3,119.5,36,118.1,31.7z"/>
	</g>
</g>
</svg>
